# File created by Blade
# Date/Time:  Wed Sep 24 19:25:39 2014
# Frame Rate: 120.000 fps
#------------------------------------------------------
:FULLY-SPECIFIED
:DEGREES
1726
root -16.040212 32.619698 -4.089140 13.493346 28.278693 4.128721
Spine -16.306474 0.542878 7.860778
Head 14.711344 -9.623600 -2.759849
LeftShoulder -14.326910 25.733855 6.161423
LeftArm 22.131912 15.301480 -68.116180
LeftForeArm 16.416378 -0.000000 63.437389
LeftHand -27.515182 -0.000000 -0.822295
LeftHandThumb1 -26.253704 0.000000 33.147579
RightShoulder -20.521741 6.459587 -26.874632
RightArm -15.296217 5.027390 63.526677
RightForeArm -9.719686 0.000000 114.871368
RightHand -10.469629 -0.000000 -15.418708
RightHandThumb1 -24.326973 -0.000000 -32.862282
LeftUpLeg -41.083456 51.811069 7.738672
LeftLeg 112.029515 -0.000000 -0.000000
LeftFoot 36.235335 16.127352 -24.517773
LeftToeBase 21.434564 -0.000000 -0.000000
RightUpLeg -8.026820 -3.852946 5.999357
RightLeg -0.629982 -0.000000 0.000000
RightFoot -8.480922 -10.123815 -8.700910
RightToeBase -2.525847 -0.000000 0.000000
1727
root -16.031726 32.617149 -4.102123 13.441406 28.252226 4.062936
Spine -16.232146 0.592280 7.956730
Head 14.558172 -9.651984 -2.818127
LeftShoulder -14.287603 25.710257 6.139205
LeftArm 22.104466 15.550683 -68.161234
LeftForeArm 16.547980 -0.000000 63.539326
LeftHand -27.460967 0.000000 -1.549185
LeftHandThumb1 -26.253704 0.000000 33.147579
RightShoulder -20.529109 6.453068 -26.914852
RightArm -15.265262 5.085254 63.531848
RightForeArm -9.681728 -0.000000 114.889092
RightHand -10.452172 -0.000000 -15.382042
RightHandThumb1 -24.326973 -0.000000 -32.862282
LeftUpLeg -40.996656 51.729224 7.559670
LeftLeg 111.839609 -0.000000 -0.000000
LeftFoot 36.321537 16.045225 -24.410903
LeftToeBase 21.013749 -0.000000 -0.000000
RightUpLeg -8.035008 -3.828921 6.027193
RightLeg -0.591863 -0.000000 0.000000
RightFoot -8.509295 -10.122712 -8.691644
RightToeBase -2.517103 -0.000000 0.000000
1728
root -16.020303 32.615355 -4.112085 13.392480 28.225233 4.002102
Spine -16.181060 0.621589 8.056963
Head 14.435431 -9.632303 -2.879269
LeftShoulder -14.300431 25.729249 6.097076
LeftArm 22.173366 15.809791 -68.186004
LeftForeArm 16.481097 -0.000000 63.575789
LeftHand -27.564987 -0.000000 -1.635457
LeftHandThumb1 -26.253704 0.000000 33.147579
RightShoulder -20.519037 6.456035 -26.946255
RightArm -15.236802 5.118214 63.518092
RightForeArm -9.653670 -0.000000 114.902883
RightHand -10.304008 -0.000000 -15.404171
RightHandThumb1 -24.326973 -0.000000 -32.862282
LeftUpLeg -40.876395 51.631129 7.381971
LeftLeg 111.633243 -0.000000 -0.000000
LeftFoot 36.362243 15.978673 -24.254112
LeftToeBase 21.012403 -0.000000 -0.000000
RightUpLeg -8.022280 -3.798989 6.052154
RightLeg -0.592996 -0.000000 0.000000
RightFoot -8.514075 -10.146086 -8.714547
RightToeBase -2.400353 -0.000000 0.000000
1729
root -16.011659 32.612790 -4.126274 13.344331 28.192324 3.940958
Spine -16.113267 0.664479 8.141945
Head 14.306114 -9.627031 -2.911058
LeftShoulder -14.269246 25.696821 6.099212
LeftArm 22.195171 16.101448 -68.223505
LeftForeArm 16.554142 -0.000000 63.622041
LeftHand -27.505947 0.000000 -1.696468
LeftHandThumb1 -26.253704 0.000000 33.147579
RightShoulder -20.518079 6.462133 -26.957911
RightArm -15.187602 5.163788 63.496597
RightForeArm -9.628097 0.000000 114.906952
RightHand -10.333211 -0.000000 -15.368525
RightHandThumb1 -24.326973 -0.000000 -32.862282
LeftUpLeg -40.779465 51.532095 7.198503
LeftLeg 111.459519 -0.000000 -0.000000
LeftFoot 36.296798 16.041599 -24.297024
LeftToeBase 21.010847 -0.000000 -0.000000
RightUpLeg -8.029522 -3.726881 6.070336
RightLeg -0.568479 -0.000000 0.000000
RightFoot -8.508423 -10.200305 -8.734606
RightToeBase -2.457080 -0.000000 0.000000
1730
root -16.004233 32.610223 -4.137095 13.290892 28.185820 3.889112
Spine -16.046651 0.660041 8.218067
Head 14.177356 -9.613227 -2.937246
LeftShoulder -14.268012 25.688165 6.083789
LeftArm 22.265066 16.371341 -68.236999
LeftForeArm 16.536143 -0.000000 63.658383
LeftHand -27.526014 -0.000000 -1.843085
LeftHandThumb1 -26.253704 0.000000 33.147579
RightShoulder -20.509807 6.478418 -26.964842
RightArm -15.145364 5.205337 63.505100
RightForeArm -9.607822 -0.000000 114.916813
RightHand -10.352139 0.000000 -15.351085
RightHandThumb1 -24.326973 -0.000000 -32.862282
LeftUpLeg -40.667854 51.428165 7.001940
LeftLeg 111.245263 -0.000000 -0.000000
LeftFoot 36.658231 15.886619 -23.597702
LeftToeBase 20.162184 -0.000000 -0.000000
RightUpLeg -8.012145 -3.707542 6.093745
RightLeg -0.568859 -0.000000 0.000000
RightFoot -8.506736 -10.217875 -8.738827
RightToeBase -2.461269 -0.000000 0.000000
1731
root -15.994364 32.608209 -4.151945 13.262667 28.169767 3.835763
Spine -16.012758 0.666351 8.319659
Head 14.072800 -9.579501 -3.006419
LeftShoulder -14.283272 25.701190 6.042943
LeftArm 22.355429 16.659048 -68.249513
LeftForeArm 16.631043 -0.000000 63.707743
LeftHand -27.563919 -0.000000 -1.927958
LeftHandThumb1 -26.253704 0.000000 33.147579
RightShoulder -20.488302 6.507090 -26.990304
RightArm -15.104476 5.216516 63.479937
RightForeArm -9.616193 0.000000 114.922440
RightHand -10.378741 -0.000000 -15.351275
RightHandThumb1 -24.326973 -0.000000 -32.862282
LeftUpLeg -40.587633 51.290862 6.787635
LeftLeg 111.067354 -0.000000 -0.000000
LeftFoot 36.568673 15.955489 -23.703537
LeftToeBase 20.558136 -0.000000 -0.000000
RightUpLeg -8.046549 -3.651124 6.111337
RightLeg -0.522538 -0.000000 0.000000
RightFoot -8.518913 -10.301389 -8.786865
RightToeBase -2.421034 -0.000000 0.000000
1732
root -15.983453 32.605826 -4.164401 13.231878 28.172412 3.785737
Spine -15.982648 0.661552 8.418066
Head 13.968084 -9.561053 -3.072484
LeftShoulder -14.261850 25.730032 6.023253
LeftArm 22.422946 16.936606 -68.285591
LeftForeArm 16.808837 -0.000000 63.766270
LeftHand -27.455114 -0.000000 -2.079897
LeftHandThumb1 -26.253704 0.000000 33.147579
RightShoulder -20.484503 6.545110 -27.024088
RightArm -15.083971 5.210843 63.463505
RightForeArm -9.617882 -0.000000 114.940427
RightHand -10.375661 0.000000 -15.336751
RightHandThumb1 -24.326973 -0.000000 -32.862282
LeftUpLeg -40.491737 51.161534 6.597659
LeftLeg 110.916880 -0.000000 -0.000000
LeftFoot 36.610200 15.870801 -23.549774
LeftToeBase 20.124531 -0.000000 -0.000000
RightUpLeg -8.054370 -3.633353 6.128625
RightLeg -0.513382 -0.000000 0.000000
RightFoot -8.532216 -10.328547 -8.778296
RightToeBase -2.438335 -0.000000 0.000000
